<?xml version="1.0" encoding="utf-8"?>
<svg id="master-artboard" viewBox="0 0 2800 1800" version="1.1" xmlns="http://www.w3.org/2000/svg" x="0px" y="0px" style="enable-background:new 0 0 2800 1800;" width="2800px" height="1800px">

<path class="st0" d="M1944.2,994.8c-2.2-2.2-5.8-2.2-8.1,0l-44.1,44.1l-81.6,5.4c-0.4,0-0.7,0.2-1.1,0.3c-0.3,0.1-0.5,0.1-0.8,0.2&#10;&#9;c-0.7,0.3-1.3,0.7-1.8,1.2l-55.8,55.8c0,0,0,0,0,0c0,0,0,0,0,0l-126.8,126.8l-15.8-15.8c-11.8-11.8-31-11.8-42.8,0l-10.9,10.9&#10;&#9;c-2.2,2.2-2.2,5.8,0,8.1l54.6,54.6l-78.8,78.8l-26-26c-2.2-2.2-5.8-2.2-8.1,0l-31.8,31.8c-2.2,2.2-2.2,5.8,0,8.1l95.5,95.5&#10;&#9;c1.1,1.1,2.6,1.7,4,1.7s2.9-0.6,4-1.7l31.8-31.8c1.1-1.1,1.7-2.5,1.7-4c0-1.5-0.6-3-1.7-4l-26-26l78.8-78.8l54.6,54.6&#10;&#9;c1.1,1.1,2.6,1.7,4,1.7c1.5,0,2.9-0.6,4-1.7l10.9-10.9c0,0,0,0,0,0c5.7-5.7,8.9-13.3,8.9-21.4c0-8.1-3.1-15.7-8.9-21.4l-15.8-15.8&#10;&#9;l182.6-182.6c0.5-0.5,0.9-1.1,1.2-1.8c0.1-0.3,0.1-0.5,0.2-0.8c0.1-0.4,0.2-0.7,0.3-1.1l5.4-81.6l44.1-44.1&#10;&#9;C1946.4,1000.7,1946.4,997.1,1944.2,994.8z M1587.8,1438.7l-23.7,23.7l-87.4-87.4l23.7-23.7l26,26l35.3,35.3L1587.8,1438.7z&#10;&#9; M1565.8,1400.5l-27.3-27.3l78.8-78.8l18.2,18.2l9.1,9.1L1565.8,1400.5z M1723.7,1352.1c0,5-2,9.8-5.5,13.3l-6.8,6.8l-54.6-54.6&#10;&#9;c0,0,0,0,0,0l-13-13l-77-76.9l6.8-6.8c7.4-7.3,19.3-7.3,26.7,0l117.8,117.8C1721.7,1342.3,1723.7,1347.1,1723.7,1352.1z&#10;&#9; M1884.1,1115.3l-60.3-60.3l64.7-4.3L1884.1,1115.3z M1659.2,1209.8l25.4,25.4c1.1,1.1,2.6,1.7,4,1.7s2.9-0.6,4-1.7&#10;&#9;c2.2-2.2,2.2-5.8,0-8.1l-25.4-25.4l15.9-15.9l25.4,25.4c1.1,1.1,2.6,1.7,4,1.7c1.5,0,2.9-0.6,4-1.7c2.2-2.2,2.2-5.8,0-8.1&#10;&#9;l-25.4-25.4l15.9-15.9l25.4,25.4c1.1,1.1,2.6,1.7,4,1.7s2.9-0.6,4-1.7c2.2-2.2,2.2-5.8,0-8.1l-25.4-25.4l15.9-15.9l25.4,25.4&#10;&#9;c1.1,1.1,2.6,1.7,4,1.7c1.5,0,2.9-0.6,4-1.7c2.2-2.2,2.2-5.8,0-8.1l-25.4-25.4l15.9-15.9l25.4,25.4c1.1,1.1,2.6,1.7,4,1.7&#10;&#9;c1.5,0,2.9-0.6,4-1.7c2.2-2.2,2.2-5.8,0-8.1l-25.4-25.4l47.7-47.7l70.1,70.1l-178.6,178.6l-70.1-70.1L1659.2,1209.8z" style="fill: rgb(1, 1, 1);"/>
<g>
	<path class="st0" d="M631.2,1065.3c-30.8-30.8-80.9-30.8-111.7,0l-180.6,180.6c-30.8,30.8-30.8,80.9,0,111.7&#10;&#9;&#9;c14.9,14.9,34.7,23.1,55.8,23.1c21.1,0,40.9-8.2,55.8-23.1l180.6-180.6C662,1146.1,662,1096,631.2,1065.3z M442.5,1349.5&#10;&#9;&#9;c-12.8,12.8-29.7,19.8-47.8,19.8c-18,0-35-7-47.8-19.8c-12.8-12.8-19.8-29.7-19.8-47.8c0-18,7-35,19.8-47.8l86.3-86.3l95.5,95.5&#10;&#9;&#9;L442.5,1349.5z M536.8,1255.1l-95.5-95.5l86.3-86.3c13.2-13.2,30.5-19.7,47.8-19.7c17.3,0,34.6,6.6,47.8,19.7&#10;&#9;&#9;c26.3,26.3,26.3,69.2,0,95.5L536.8,1255.1z" style="fill: rgb(1, 1, 1);"/>
	<path class="st0" d="M595.4,1093c-2.2,2.2-2.2,5.8,0,8.1c7.1,7.1,11,16.5,11,26.5c0,10-3.9,19.4-11,26.5c-2.2,2.2-2.2,5.8,0,8.1&#10;&#9;&#9;c1.1,1.1,2.6,1.7,4,1.7c1.5,0,2.9-0.6,4-1.7c9.2-9.2,14.3-21.5,14.3-34.6c0-13.1-5.1-25.3-14.3-34.6&#10;&#9;&#9;C601.2,1090.8,597.6,1090.8,595.4,1093z" style="fill: rgb(1, 1, 1);"/>
	<path class="st0" d="M717.4,1261.1c-18.4-18.4-42.8-28.5-68.8-28.5c-26,0-50.4,10.1-68.8,28.5c-37.9,37.9-37.9,99.6,0,137.6&#10;&#9;&#9;c18.4,18.4,42.8,28.5,68.8,28.5c26,0,50.4-10.1,68.8-28.5C755.3,1360.8,755.3,1299.1,717.4,1261.1z M587.9,1269.2&#10;&#9;&#9;c16.2-16.2,37.8-25.1,60.7-25.1c21,0,40.8,7.6,56.5,21.3l-121,121C554.6,1352.7,555.8,1301.3,587.9,1269.2z M709.3,1390.6&#10;&#9;&#9;c-16.2,16.2-37.8,25.1-60.7,25.1c-21,0-40.8-7.6-56.5-21.3l121-121C742.6,1307.1,741.4,1358.5,709.3,1390.6z" style="fill: rgb(1, 1, 1);"/>
</g>
<path class="st0" d="M1298.7,1110.4c19.3-19.3,19.3-50.7,0-70c-9.3-9.4-21.8-14.5-35-14.5c-13.2,0-25.7,5.1-35,14.5l-26.7,26.7&#10;&#9;c0,0,0,0,0,0c0,0,0,0,0,0l-10.7,10.7c-0.1,0.1-0.1,0.2-0.2,0.3l-5-5c-8.8-8.8-23.5-9.3-32.8-1.1l-68.8,60.3c-0.7,0.3-1.4,0.7-2,1.3&#10;&#9;c-0.4,0.4-0.6,0.8-0.8,1.2L903,1291.4c-4.6,4.1-7.3,9.6-7.5,15.6c-0.2,6,2.1,11.7,6.4,16.1l113.9,113.9c4.2,4.2,9.6,6.4,15.4,6.4&#10;&#9;c0.2,0,0.5,0,0.7,0c6-0.2,11.6-2.9,15.6-7.5l18.1-20.6c0.4-0.2,0.9-0.4,1.2-0.8c0.6-0.6,1-1.3,1.3-2l136-155.3&#10;&#9;c0.4-0.2,0.9-0.5,1.2-0.8c0.6-0.6,1-1.3,1.3-2.1l60.3-68.8c8.2-9.3,7.7-24-1.1-32.8l-4.8-4.8c0.1-0.1,0.2-0.1,0.3-0.2L1298.7,1110.4&#10;&#9;z M1236.8,1048.5c7.2-7.2,16.8-11.2,26.9-11.2c10.2,0,19.7,4,26.9,11.2c14.8,14.8,14.8,39,0,53.8L1268,1125l-53.8-53.8&#10;&#9;L1236.8,1048.5z M1062.2,1401.8l-125.1-125.1l69-60.5c0.2,0.4,0.4,0.8,0.7,1.1l114.8,114.8c0.3,0.3,0.7,0.5,1.1,0.7L1062.2,1401.8z&#10;&#9; M1129.7,1324l-114.8-114.8c-0.1-0.1-0.3-0.2-0.5-0.3l72.2-63.3l106.6,106.6l-63.3,72.2C1129.9,1324.3,1129.8,1324.2,1129.7,1324z&#10;&#9; M1038.9,1428.4c-2,2.2-4.6,3.5-7.4,3.6c-2.8,0.1-5.6-1-7.6-3.1L910,1315c-2.1-2.1-3.2-4.8-3.1-7.6c0.1-2.8,1.4-5.5,3.6-7.4l18-15.7&#10;&#9;l126.2,126.2L1038.9,1428.4z M1258.3,1178l-57.6,65.7l-105.6-105.6l65.7-57.6c2.3-2,5.3-3,8.3-3c3.3,0,6.6,1.2,8.9,3.6l79.7,79.7&#10;&#9;C1262.3,1165.3,1262.5,1173.2,1258.3,1178z M1199.2,1086.1c0.1-0.1,0.2-0.1,0.3-0.2l6.6-6.6l53.8,53.8l-6.6,6.6&#10;&#9;c-0.1,0.1-0.1,0.2-0.2,0.3L1199.2,1086.1z" style="fill: rgb(1, 1, 1);"/>
<g>
	<path class="st0" d="M1260.5,375.7c-19.3-18.9-42.3-24.6-56.5-21.9c-14.3,2.7-103.5,2.7-117.8,0c-14.4-2.7-33.1,3-48.7,15&#10;&#9;&#9;c-21.4,16.5-35.2,43.1-39.6,75.3c-0.3,0.5-0.6,1-0.8,1.5l-13.2,35.7l-35,12.5c-2.3,0.8-3.8,3-3.8,5.4c0,2.4,1.6,4.6,3.9,5.4&#10;&#9;&#9;l34.6,11.9l13.5,36.4c0.6,1.6,1.8,2.7,3.3,3.3c5.6,13.5,10.4,21,14.2,27.1c8.2,12.8,11.9,18.7,11.9,74.5c0,62.7,34.6,95.6,36.1,97&#10;&#9;&#9;c1.1,1,2.5,1.5,3.9,1.5c0.7,0,1.3-0.1,2-0.3c2-0.7,3.5-2.5,3.7-4.7c5-40.3,27.8-144.9,72.9-144.9c45,0,67.9,104.6,72.9,144.9&#10;&#9;&#9;c0.3,2.1,1.7,3.9,3.7,4.7c2,0.7,4.3,0.3,5.8-1.2c1.5-1.4,36.1-34.3,36.1-97c0-51.3,2.4-57.9,7.7-72.4c4.6-12.6,10.9-29.8,19.3-80.8&#10;&#9;&#9;C1302.9,429.9,1277,391.8,1260.5,375.7z M993.3,510c-0.6-1.6-1.9-2.9-3.5-3.4l-21.8-7.5l22.2-7.9c1.6-0.6,2.8-1.8,3.4-3.4l8.4-22.8&#10;&#9;&#9;l7,21.2c0.5,1.7,1.8,3,3.4,3.6l24.9,9.3l-22.2,7.9c-1.6,0.6-2.8,1.8-3.4,3.3l-9.3,24.4L993.3,510z M1279.3,502.7&#10;&#9;&#9;c-8.2,49.9-14.3,66.6-18.8,78.7c-5.6,15.3-8.4,23-8.4,76.4c0,39.5-15.2,66.4-24.8,79.5c-6.1-37.2-28.3-142.3-82.3-142.3&#10;&#9;&#9;c-54.1,0-76.2,105.2-82.3,142.3c-9.6-13-24.7-39.9-24.7-79.5c0-56.9-4-65.3-13.7-80.6c-3.9-6.1-8.7-13.7-14.6-28.3&#10;&#9;&#9;c-0.1-0.1-0.2-0.2-0.2-0.3l12.1-31.6l34.5-12.2c2.3-0.8,3.8-2.9,3.8-5.3c0-2.4-1.5-4.6-3.7-5.4l-37-13.8l-10.2-31.2&#10;&#9;&#9;c3.5-30.7,15.9-55.8,35.6-71c15.7-12.1,31.1-14.5,39.6-12.8c16,3,106.1,3,122.1,0c11.3-2.1,30,2.8,46.4,18.8&#10;&#9;&#9;C1267.4,398.4,1290.8,433.2,1279.3,502.7z" style="fill: rgb(0, 176, 7);"/>
	<path class="st0" d="M1185.6,399.5c-3.1,0.6-5.1,3.6-4.5,6.7c0.6,3.1,3.6,5.1,6.7,4.5c7.2-1.3,19.8,2,30.7,12.6&#10;&#9;&#9;c10.1,9.9,25.9,33.5,18.1,80.9c-0.5,3.1,1.6,6.1,4.7,6.6c0.3,0.1,0.6,0.1,0.9,0.1c2.7,0,5.2-2,5.6-4.8c8.6-52.5-9.7-79.5-21.4-91&#10;&#9;&#9;C1214.2,403.2,1198.2,397.1,1185.6,399.5z" style="fill: rgb(0, 176, 7);"/>
	<path class="st0" d="M957.6,426.3C957.6,426.3,957.6,426.3,957.6,426.3c2.4,0,4.5-1.5,5.4-3.7l11.7-30.7l29.2-10.4&#10;&#9;&#9;c2.3-0.8,3.8-2.9,3.8-5.3c0-2.4-1.5-4.6-3.7-5.4l-31.4-11.8l-9.5-29c-0.8-2.3-2.9-3.9-5.3-3.9c-2.5,0-4.6,1.5-5.5,3.7l-11.2,30.3&#10;&#9;&#9;l-29.7,10.6c-2.3,0.8-3.8,3-3.8,5.4c0,2.4,1.6,4.6,3.9,5.4l29.4,10.1l11.5,30.9C953.1,424.8,955.2,426.3,957.6,426.3z M947.1,381.8&#10;&#9;&#9;l-16.5-5.7l16.9-6c1.6-0.6,2.8-1.8,3.4-3.4l6.4-17.4l5.3,16.1c0.5,1.7,1.8,3,3.4,3.6l19.3,7.2l-16.9,6c-1.6,0.6-2.8,1.8-3.4,3.3&#10;&#9;&#9;l-7.2,19l-7.1-19.2C950,383.6,948.7,382.3,947.1,381.8z" style="fill: rgb(0, 176, 7);"/>
	<path class="st0" d="M1129.9,426.1l-31.4-11.8l-9.5-29c-0.8-2.3-2.9-3.9-5.3-3.9c-2.5-0.1-4.6,1.5-5.5,3.7l-11.2,30.3l-29.7,10.6&#10;&#9;&#9;c-2.3,0.8-3.8,3-3.8,5.4c0,2.4,1.6,4.6,3.9,5.4l29.4,10.1l11.5,30.9c0.8,2.2,3,3.7,5.3,3.7c0,0,0,0,0,0c2.4,0,4.5-1.5,5.3-3.7&#10;&#9;&#9;l11.7-30.7l29.2-10.4c2.3-0.8,3.8-2.9,3.8-5.3C1133.6,429.1,1132.1,427,1129.9,426.1z M1094.2,437.3c-1.6,0.6-2.8,1.8-3.4,3.3&#10;&#9;&#9;l-7.2,19l-7.1-19.2c-0.6-1.6-1.9-2.9-3.5-3.4l-16.5-5.7l16.9-6c1.6-0.6,2.8-1.8,3.4-3.4l6.4-17.4l5.3,16.1c0.5,1.7,1.8,3,3.4,3.6&#10;&#9;&#9;l19.3,7.2L1094.2,437.3z" style="fill: rgb(0, 176, 7);"/>
</g>
<g>
	<path class="st0" d="M2382.9,359c-16.3-14.4-37.2-21.7-53-18.7c-14.3,2.7-103.5,2.7-117.8,0c-15.9-3-36.7,4.3-53,18.7&#10;&#9;&#9;c-15.2,13.4-40.2,45.2-36.4,107.4c0.2,3,2.7,5.4,5.7,5.4h75.3c2,0,3.9-1.1,5-2.9s1-4,0-5.7c-2.5-4.2-3.8-9-3.8-13.8&#10;&#9;&#9;c0-15,12.2-27.1,27.1-27.1h78.1c15,0,27.1,12.2,27.1,27.1c0,4.8-1.3,9.6-3.8,13.7c-1,1.8-1.1,4,0,5.7c1,1.8,2.9,2.9,5,2.9h75.3&#10;&#9;&#9;c3,0,5.5-2.3,5.7-5.4C2423.1,404.1,2398.1,372.4,2382.9,359z M2408.1,460.3h-61.2c1.1-3.5,1.6-7.2,1.6-10.9&#10;&#9;&#9;c0-21.3-17.3-38.5-38.5-38.5h-78.1c-21.3,0-38.5,17.3-38.5,38.5c0,3.7,0.5,7.4,1.6,10.9h-61.2c-1.8-53.8,19.6-81.1,32.8-92.8&#10;&#9;&#9;c15.7-13.8,33.1-18,43.4-16c16,3,106.1,3,122.1,0c0,0,0,0,0,0c10.3-2,27.7,2.2,43.4,16C2388.5,379.2,2410,406.5,2408.1,460.3z" style="fill: rgb(1, 1, 1);"/>
	<path class="st0" d="M2408.8,496.5h-93.1v-54.3c0-3.2-2.6-5.7-5.7-5.7h-78c-3.2,0-5.7,2.6-5.7,5.7v54.3h-93.1c-1.7,0-3.3,0.7-4.4,2&#10;&#9;&#9;c-1.1,1.3-1.5,3-1.2,4.7c7.4,41.7,13.1,57.2,17.2,68.6c5.3,14.5,7.7,21.2,7.7,72.5c0,62.7,34.6,95.6,36.1,97c1.1,1,2.5,1.5,3.9,1.5&#10;&#9;&#9;c0.7,0,1.3-0.1,2-0.3c2-0.7,3.5-2.5,3.7-4.7c5-40.3,27.8-144.9,72.9-144.9c45,0,67.9,104.6,72.9,144.9c0.3,2.1,1.7,3.9,3.7,4.7&#10;&#9;&#9;c2,0.7,4.3,0.3,5.8-1.2c1.5-1.4,36.1-34.3,36.1-97c0-51.3,2.4-58,7.7-72.5c4.2-11.4,9.9-26.9,17.2-68.6c0.3-1.7-0.2-3.4-1.2-4.7&#10;&#9;&#9;C2412.1,497.3,2410.5,496.5,2408.8,496.5z M2386.5,567.9c-5.6,15.4-8.4,23.1-8.4,76.4c0,39.5-15.2,66.4-24.8,79.5&#10;&#9;&#9;c-6.1-37.2-28.3-142.3-82.3-142.3c-54.1,0-76.2,105.2-82.3,142.3c-9.6-13-24.7-39.9-24.7-79.5c0-53.4-2.8-61.1-8.4-76.4&#10;&#9;&#9;c-3.8-10.3-8.9-24.3-15.5-60h92c3.2,0,5.7-2.6,5.7-5.7V448h66.6v54.3c0,3.2,2.6,5.7,5.7,5.7h92&#10;&#9;&#9;C2395.3,543.6,2390.2,557.5,2386.5,567.9z" style="fill: rgb(1, 1, 1);"/>
</g>
<g>
	<path class="st0" d="M1792.5,341.2c-13.2-12.8-30.4-19.4-43.9-16.9c-10.7,2-77.7,2-88.4,0c-13.5-2.6-30.8,4-43.9,16.9&#10;&#9;&#9;c-12.7,12.4-32.5,41.6-23.1,98.5c6.4,38.6,11.1,51.7,14.6,61.3c2.5,6.7,4,10.8,4.8,21.5c0.2,3,2.7,5.2,5.7,5.2c0,0,0,0,0.1,0&#10;&#9;&#9;l172.3-1.6c2.9,0,5.4-2.3,5.6-5.2c0.9-9.5,2.4-13.6,4.7-19.9c3.5-9.6,8.3-22.6,14.6-61.3C1825,382.8,1805.2,353.6,1792.5,341.2z&#10;&#9;&#9; M1804.4,437.9c-6.2,37.6-10.8,50.1-14.1,59.2c-2,5.4-3.6,9.9-4.7,17.6l-162.1,1.5c-1.1-8.6-2.8-13.2-5-19.1&#10;&#9;&#9;c-3.3-9.1-7.9-21.6-14.1-59.2c-8.5-51.8,8.8-77.7,19.8-88.5c10.3-10,22-14.1,30.2-14.1c1.3,0,2.5,0.1,3.7,0.3&#10;&#9;&#9;c12.1,2.3,80.5,2.3,92.7,0c7.9-1.5,21.9,2.2,33.8,13.8C1795.6,360.2,1812.9,386.1,1804.4,437.9z" style="fill: rgb(1, 1, 1);"/>
	<path class="st0" d="M1734.7,358.8c-3.1,0.6-5.1,3.6-4.5,6.7c0.6,3.1,3.6,5.1,6.7,4.5c5.1-1,14.1,1.5,21.9,9.1&#10;&#9;&#9;c7.4,7.3,19.1,24.7,13.3,59.9c-0.5,3.1,1.6,6.1,4.7,6.6c0.3,0.1,0.6,0.1,0.9,0.1c2.7,0,5.2-2,5.6-4.8c6.6-40.3-7.5-61.1-16.6-69.9&#10;&#9;&#9;C1757.2,361.7,1744.6,357,1734.7,358.8z" style="fill: rgb(1, 1, 1);"/>
	<path class="st0" d="M1789.2,575h-15.7l4.9-25.6c0.3-1.7-0.1-3.4-1.2-4.7s-2.7-2.1-4.4-2.1H1636c-1.7,0-3.3,0.8-4.4,2.1&#10;&#9;&#9;c-1.1,1.3-1.5,3-1.2,4.7l4.9,25.6h-13.5c-3.2,0-5.7,2.6-5.7,5.7s2.6,5.7,5.7,5.7h20.4h124.5h22.6c3.2,0,5.7-2.6,5.7-5.7&#10;&#9;&#9;S1792.3,575,1789.2,575z M1646.8,575l-4-20.9h123l-4,20.9H1646.8z" style="fill: rgb(1, 1, 1);"/>
	<path class="st0" d="M1782.4,625.9h-18.6l5-26.1c0.3-1.7-0.1-3.4-1.2-4.7c-1.1-1.3-2.7-2.1-4.4-2.1h-117.7c-1.7,0-3.3,0.8-4.4,2.1&#10;&#9;&#9;s-1.5,3-1.2,4.7l5,26.1h-18.6c-3.2,0-5.7,2.6-5.7,5.7s2.6,5.7,5.7,5.7h25.5H1757h25.5c3.2,0,5.7-2.6,5.7-5.7&#10;&#9;&#9;S1785.6,625.9,1782.4,625.9z M1656.5,625.9l-4.1-21.4h103.9l-4.1,21.4H1656.5z" style="fill: rgb(1, 1, 1);"/>
	<path class="st0" d="M1743.8,694.9h-78.9c-1.7,0-3.3,0.8-4.4,2.1c-1.1,1.3-1.5,3-1.2,4.7l3.4,17.9c2.9,13.5,15.4,39.1,41.7,39.1&#10;&#9;&#9;c26.3,0,38.8-25.6,41.7-39.3l3.4-17.7c0.3-1.7-0.1-3.4-1.2-4.7C1747.2,695.6,1745.5,694.9,1743.8,694.9z M1734.9,717.1&#10;&#9;&#9;c-0.1,0.3-6.7,30.1-30.5,30.1c-23.6,0-30.2-28.9-30.5-30l-2.1-10.9h65.1L1734.9,717.1z" style="fill: rgb(1, 1, 1);"/>
	<path class="st0" d="M1776.7,676.8h-22.5l5-26.1c0.3-1.7-0.1-3.4-1.2-4.7c-1.1-1.3-2.7-2.1-4.4-2.1h-98.3c-1.7,0-3.3,0.8-4.4,2.1&#10;&#9;&#9;c-1.1,1.3-1.5,3-1.2,4.7l4.9,26.1H1632c-3.2,0-5.7,2.6-5.7,5.7s2.6,5.7,5.7,5.7h29.4h85.8h29.4c3.2,0,5.7-2.6,5.7-5.7&#10;&#9;&#9;S1779.9,676.8,1776.7,676.8z M1666.2,676.8l-4.1-21.4h84.5l-4.1,21.4H1666.2z" style="fill: rgb(1, 1, 1);"/>
</g>
<g>
	<path class="st0" d="M351.6,479.5c-0.3,1.6-0.4,2.9-0.5,3.5c-0.2,1.5,0.2,3,1.1,4.2c7.2,9.5,27.5,24.8,54.1,17.7&#10;&#9;&#9;c7.3,4.9,29.6,17.5,56.8,10c8.1,1.8,45.4,9.6,67.9,0.3c8.1,3.3,18.1,4.5,28,4.5c17.6,0,34.7-3.6,39.9-4.8&#10;&#9;&#9;c27.1,7.4,49.5-5.1,56.8-10c26.7,7.1,46.9-8.2,54.1-17.7c0.9-1.2,1.3-2.7,1.1-4.2c-0.1-0.8-0.4-2.5-0.8-4.7&#10;&#9;&#9;c0.1-0.3,0.2-0.6,0.2-0.9c0.2-3.2,4.1-77.6-33.3-112.7c-37.1-34.8-141.7-38.4-146.5-38.6c-4.4,0.1-109,3.7-146.1,38.6&#10;&#9;&#9;c-37.4,35.2-33.5,109.6-33.3,112.7C351.1,478.1,351.3,478.8,351.6,479.5z M656.3,493.1c-1.8-0.6-3.8-0.2-5.3,1&#10;&#9;&#9;c-0.2,0.2-22.8,17.7-50.4,9.4c-1-0.3-2-0.3-3-0.1c-0.4,0.1-41.6,10.1-62.6,1.1c-1.1-1-2.6-1.6-4.1-1.4c-1.5-0.1-3,0.4-4.1,1.4&#10;&#9;&#9;c-21,9-62.2-1-62.6-1.1c-1-0.2-2-0.2-3,0.1c-27.4,8.2-50.2-9.2-50.4-9.4c-1.5-1.2-3.5-1.5-5.3-1c-22.9,7.4-38.2-6.2-42.8-11.2&#10;&#9;&#9;c2.3-13.9,9.4-38.5,20.2-40c6.2-0.8,10.8,0.1,13.8,2.6c4,3.5,4.9,10.1,4.9,15.1c0,0.9,0,1.4,0,1.4c0,0.1,0,0.1,0,0.2&#10;&#9;&#9;c0,0,0,0.1,0,0.1v14.6c0,3.2,2.6,5.7,5.7,5.7c3.2,0,5.7-2.6,5.7-5.7v-14.6c0-0.1-0.1-0.2-0.1-0.3c0-0.3,0.1-0.6,0.1-1&#10;&#9;&#9;c0.2-3.9,1.6-17.5,9.2-25.2c3.4-3.5,7.6-5.1,12.9-5.1c6.3,0,11.1,1.9,14.7,5.7c8.2,8.8,7.3,24.8,7.3,25c0,0.1,0,0.1,0,0.2&#10;&#9;&#9;c0,0.1,0,0.1,0,0.2v10.8c0,3.2,2.6,5.7,5.7,5.7s5.7-2.6,5.7-5.7v-10.2c0.7-3.7,7.6-38.1,31.9-38.1c17.4,0,23.7,26.6,24.5,30.4v21.7&#10;&#9;&#9;c0,3.2,2.6,5.7,5.7,5.7c3.2,0,5.7-2.6,5.7-5.7v-20c0.2-0.4,0.4-0.8,0.5-1.2c0.1-0.3,6.2-30.9,24.6-30.9c25.5,0,31.9,38.1,31.9,38.5&#10;&#9;&#9;l0,0c0,0,0,0.1,0,0.1v10.8c0,3.2,2.6,5.7,5.7,5.7c3.2,0,5.7-2.6,5.7-5.7v-10.8c0-0.3-0.1-0.5-0.1-0.7c0-0.2,0.1-0.4,0.1-0.7&#10;&#9;&#9;c0-0.2-0.8-16.3,7.3-25c3.6-3.8,8.4-5.7,14.8-5.7c5.2,0,9.4,1.7,12.9,5.1c7.6,7.7,9,21.4,9.2,25.2l0,1.1c0,0.3,0.1,0.4,0.2,0.7&#10;&#9;&#9;c0,0.2-0.1,0.3-0.1,0.5V477c0,3.2,2.6,5.7,5.7,5.7c3.2,0,5.7-2.6,5.7-5.7v-14.5c0-0.3-0.1-0.5-0.1-0.7c0-0.2,0.1-0.4,0.1-0.5&#10;&#9;&#9;c0,0,0-0.5,0-1.4c0-5,0.9-11.6,4.9-15.1c2.9-2.6,7.6-3.5,13.8-2.6c10.8,1.4,17.9,26,20.2,39.9C694.4,486.9,679,500.5,656.3,493.1z&#10;&#9;&#9; M392.2,372.9c33.9-31.9,137.6-35.4,138.3-35.5c1,0,104.7,3.6,138.6,35.5c18.5,17.4,25.6,46.9,28.3,70c-4.3-6.4-9.9-11.3-17-12.2&#10;&#9;&#9;c-9.6-1.3-17.3,0.5-22.8,5.4c-0.8,0.7-1.6,1.5-2.3,2.3c-5.7-13.1-15.6-20-28.6-20c-9.5,0-17.3,3.1-23.1,9.3c-2.8,3-4.8,6.4-6.3,9.8&#10;&#9;&#9;c-6.2-12.6-17.1-25.7-35.9-25.7c-16.1,0-25.4,12.7-30.5,23.8c-5.1-11.1-14.4-23.8-30.5-23.8c-18.8,0-29.7,13.1-35.9,25.7&#10;&#9;&#9;c-1.5-3.5-3.5-6.9-6.3-9.8c-5.8-6.2-13.6-9.3-23.1-9.3c-13,0-22.8,6.9-28.6,20c-0.7-0.8-1.5-1.6-2.3-2.3&#10;&#9;&#9;c-5.5-4.8-13.2-6.7-22.8-5.4c-7.6,1-13.3,6.4-17.7,13.4C366.3,420.7,373.4,390.5,392.2,372.9z" style="fill: rgb(0, 176, 7);"/>
	<path class="st0" d="M710.4,667.8c-1.3-9-8.4-48-30.2-50.9c-9.6-1.3-17.3,0.5-22.8,5.3c-1.7,1.5-3.2,3.3-4.4,5.3&#10;&#9;&#9;c-4.9-11.1-13.1-23-26.4-23c-9.5,0-17.3,3.1-23.1,9.3c-3.5,3.8-5.9,8.3-7.4,12.8c-6.9-9.9-18.1-18.8-34.8-18.8&#10;&#9;&#9;c-16.1,0-25.4,12.6-30.5,23.8c-5.1-11.1-14.4-23.8-30.5-23.8c-16.7,0-27.9,8.9-34.8,18.8c-1.6-4.5-3.9-9-7.4-12.8&#10;&#9;&#9;c-5.8-6.2-13.6-9.3-23.1-9.3c-13.2,0-21.4,12-26.4,23.1c-1.2-2.1-2.7-3.9-4.5-5.4c-5.5-4.8-13.2-6.6-22.8-5.3&#10;&#9;&#9;c-22.4,3-29.2,44-30.3,51.5c-1.6,4.1-7.4,21.3,4.3,39.8c20.2,32,79.2,48.2,175.1,48.2h0.7c96,0,154.9-16.2,175.2-48.2&#10;&#9;&#9;C718.8,688.6,711.5,670.3,710.4,667.8z M382.8,628.3c6.2-0.8,10.8,0.1,13.8,2.6c4.1,3.6,4.9,10.3,4.9,15.4c0,0.3,0,0.6,0.1,0.9&#10;&#9;&#9;c0,0.2-0.1,0.3-0.1,0.5v14.6c0,3.2,2.6,5.7,5.7,5.7c3.2,0,5.7-2.6,5.7-5.7v-12.9c0.5-1.2,1-2.5,1.3-3.7c2.3-7.3,9.2-29.6,20.7-29.6&#10;&#9;&#9;c6.3,0,11.1,1.9,14.7,5.7c8.2,8.8,7.3,24.8,7.3,25c0,0.1,0,0.1,0,0.2c0,0.1,0,0.1,0,0.2v10.8c0,3.2,2.6,5.7,5.7,5.7&#10;&#9;&#9;c3.2,0,5.7-2.6,5.7-5.7v-10.1c0.9-3.7,7.9-28.4,31.9-28.4c17.4,0,23.7,26.6,24.5,30.4v15.2c0,3.2,2.6,5.7,5.7,5.7s5.7-2.6,5.7-5.7&#10;&#9;&#9;v-13.5c0.2-0.4,0.4-0.8,0.5-1.3c0.1-0.3,6.2-30.9,24.6-30.9c25,0,31.4,26.3,31.9,28.7c0,0,0,0.1,0,0.1v10.8c0,3.2,2.6,5.7,5.7,5.7&#10;&#9;&#9;c3.2,0,5.7-2.6,5.7-5.7v-10.8c0-0.3-0.1-0.5-0.1-0.7c0-0.2,0.1-0.4,0.1-0.7c0-0.2-0.8-16.3,7.3-24.9c3.6-3.8,8.4-5.7,14.8-5.7&#10;&#9;&#9;c11.8,0,18.6,22.3,20.8,29.7c0.4,1.2,0.8,2.5,1.3,3.6v13.8c0,3.2,2.6,5.7,5.7,5.7c3.2,0,5.7-2.6,5.7-5.7v-14.6c0-0.3-0.1-0.6-0.2-1&#10;&#9;&#9;c0.1-0.4,0.1-0.9,0.1-1.4c0-5.1,0.9-11.8,4.9-15.4c2.9-2.6,7.6-3.5,13.8-2.6c10.8,1.4,17.9,26,20.2,39.9&#10;&#9;&#9;c-4.7,4.9-20.1,18.5-42.8,11.2c-1.8-0.6-3.8-0.2-5.3,0.9c-0.2,0.2-23,17.6-50.4,9.4c-1-0.3-2-0.3-3-0.1&#10;&#9;&#9;c-0.4,0.1-41.6,10.1-62.6,1.1c-1.1-1-2.6-1.5-4.1-1.4c-1.5-0.1-3,0.4-4.1,1.4c-21,9-62.2-1-62.6-1.1c-1-0.2-2-0.2-3,0.1&#10;&#9;&#9;c-27.5,8.2-50.2-9.2-50.4-9.4c-1.5-1.2-3.5-1.5-5.3-1c-22.9,7.4-38.2-6.2-42.8-11.2C364.8,654.3,371.9,629.7,382.8,628.3z&#10;&#9;&#9; M696.7,702.2c-12.4,19.6-51.1,42.9-165.5,42.9h-0.7c-114,0-152.9-23.2-165.4-42.7c-5.2-8-5.9-15.7-5.4-21.3&#10;&#9;&#9;c10,8,26.4,15.3,46.4,10c7.3,4.9,29.6,17.5,56.8,10c8.1,1.8,45.4,9.6,67.9,0.3c8.1,3.3,18.1,4.5,28,4.5c17.6,0,34.7-3.6,39.9-4.8&#10;&#9;&#9;c27.1,7.5,49.5-5.1,56.8-10c20.1,5.4,36.6-2.1,46.6-10.1C702.5,686.5,701.8,694.1,696.7,702.2z" style="fill: rgb(0, 176, 7);"/>
</g>
<g>
	<path class="st0" d="M2338.2,1221.1c-0.2-0.1-0.4-0.2-0.6-0.3c-0.3-0.1-0.5,0-0.8,0c-2.7-0.6-5.4-1.2-8.3-1.7&#10;&#9;&#9;c21.3-17.7,35-44.8,35-75.3v-31.8c0-53.1-41.6-96.3-92.7-96.3c-40.7,0-75.4,27.5-87.7,65.6c-0.1,0.2-0.2,0.4-0.2,0.6&#10;&#9;&#9;c-3,9.5-4.7,19.6-4.7,30.1v31.8c0,30.5,13.7,57.6,35,75.3c-2.8,0.5-5.5,1.1-8.2,1.7c-0.3,0-0.5,0-0.8,0c-0.2,0.1-0.4,0.2-0.6,0.3&#10;&#9;&#9;c-151.6,33.6-146,180.3-145.9,181.5v45.2c0,3.2,2.6,5.7,5.7,5.7c3.2,0,5.7-2.6,5.7-5.7l0-45.5c-0.3-5.9-5.1-135.9,132.2-169.1&#10;&#9;&#9;l40.5,170.7c0.6,2.6,3,4.4,5.6,4.4c0.4,0,0.9-0.1,1.3-0.2c0.5-0.1,1-0.4,1.5-0.7c0.9,0.5,2,0.9,3.2,0.8c3.1-0.3,5.5-3,5.2-6.2&#10;&#9;&#9;l-8.6-106.7l21-32.4l21,31.7l-8.8,107.3c-0.3,3.1,2.1,5.9,5.2,6.2c0.2,0,0.3,0,0.5,0c1,0,1.9-0.3,2.8-0.8c0.5,0.3,0.9,0.5,1.4,0.7&#10;&#9;&#9;c0.4,0.1,0.9,0.2,1.3,0.2c2.6,0,4.9-1.8,5.6-4.4l40.5-170.7c137.3,33.2,132.5,163.2,132.2,169.4v45.2c0,3.2,2.6,5.7,5.7,5.7&#10;&#9;&#9;c3.2,0,5.7-2.6,5.7-5.7l0-44.9C2484.2,1401.4,2489.9,1254.8,2338.2,1221.1z M2270.9,1027.2c42.1,0,76.9,33.7,80.8,76.7&#10;&#9;&#9;c-28.4-11.8-36.9-38.5-37.3-39.7c-0.8-2.7-3.5-4.4-6.3-4c-2.8,0.4-4.9,2.8-4.9,5.6c0,0.2-1,18.9-38.4,27.8&#10;&#9;&#9;c-37.4,8.9-61.8-5.8-69.7-11.7C2206.9,1049.9,2236.4,1027.2,2270.9,1027.2z M2189.7,1143.9v-31.8c0-6.5,0.8-12.7,2.1-18.8&#10;&#9;&#9;c11.9,7.8,38.1,20.2,75.7,11.3c24.4-5.8,36.2-15.8,41.9-24.2c6.6,11.6,19.6,27.8,42.8,35.8v27.8c0,46.8-36.4,84.9-81.2,84.9&#10;&#9;&#9;C2226.2,1228.7,2189.7,1190.7,2189.7,1143.9z M2244.1,1363.7l-31.6-132.8c4.6-0.9,9.4-1.7,14.3-2.3c8.1,4.6,16.9,7.9,26.2,9.8&#10;&#9;&#9;c-3.4,1.8-5.8,5.3-5.8,9.5c0,5.9,4.8,10.7,10.7,10.7h2.5l-21.1,32.5c-0.7,1.1-1,2.3-0.9,3.6L2244.1,1363.7z M2297.9,1363.5&#10;&#9;&#9;l5.7-69.6c0.1-1.3-0.2-2.6-0.9-3.6l-21.1-31.8h2.4c5.9,0,10.7-4.8,10.7-10.7c0-4.1-2.4-7.7-5.8-9.5c9.3-1.9,18.1-5.2,26.2-9.8&#10;&#9;&#9;c4.9,0.7,9.7,1.4,14.3,2.3L2297.9,1363.5z" style="fill: rgb(0, 176, 7);"/>
	<path class="st0" d="M2201.1,1322h-68.7c-3.2,0-5.7,2.6-5.7,5.7s2.6,5.7,5.7,5.7h68.7c3.2,0,5.7-2.6,5.7-5.7&#10;&#9;&#9;S2204.3,1322,2201.1,1322z" style="fill: rgb(0, 176, 7);"/>
</g>
<path d="M 541.8091430664062 330.7591552734375" style="fill-opacity: 1; stroke: rgb(0, 0, 0); stroke-opacity: 1; stroke-width: 10; paint-order: fill; fill: rgb(0, 176, 7);"/></svg>